<svg id="Layer_1" data-name="Layer 1" xmlns="http://www.w3.org/2000/svg" viewBox="0 0 3000 1000"><defs><style>.cls-1{fill:#40c0fa;}.cls-2{fill:#e5e5e5;}.cls-3{fill:#fff;}</style></defs><circle class="cls-1" cx="550" cy="500" r="400"/><rect class="cls-2" x="326" y="245.6" width="448" height="320"/><path class="cls-3" d="M693.2,324h-288V873a401.54,401.54,0,0,0,288,.62Z"/><polygon class="cls-1" points="505.2 359.2 524.98 399.23 569.2 405.65 537.2 436.81 544.75 480.8 505.2 460.03 465.65 480.8 473.2 436.81 441.2 405.65 485.42 399.23 505.2 359.2"/><polygon class="cls-1" points="617.2 453.6 629.56 478.62 657.2 482.63 637.2 502.1 641.92 529.6 617.2 516.62 592.48 529.6 597.2 502.1 577.2 482.63 604.84 478.62 617.2 453.6"/><polygon class="cls-1" points="516.4 517.6 526.29 537.61 548.4 540.82 532.4 556.4 536.18 578.4 516.4 568.01 496.62 578.4 500.4 556.4 484.4 540.82 506.51 537.61 516.4 517.6"/><path class="cls-1" d="M1120.37,431.52H1050V390.05h191.62v41.47h-70.36V610h-50.89Z"/><path class="cls-1" d="M1402.78,562.83h-102.1L1281.21,610h-52.15l98-219.9h50.26L1475.66,610h-53.4Zm-16-38.64L1351.89,440,1317,524.19Z"/><path class="cls-1" d="M1689.58,515.55q10.68,14,10.69,34.4,0,28.9-22.47,44.45T1612.31,610H1498.59V390.05H1606q40.21,0,61.73,15.39t21.52,41.78a52.86,52.86,0,0,1-29.21,48.38Q1678.9,501.57,1689.58,515.55Zm-140.41-87.17v51.83h50.57q18.85,0,28.59-6.6t9.74-19.47q0-12.88-9.74-19.32t-28.59-6.44ZM1638.85,565q10.2-6.6,10.21-20.42,0-27.33-40.52-27.33h-59.37v54.34h59.37Q1628.64,571.62,1638.85,565Z"/><path class="cls-1" d="M1781.31,431.52H1711V390.05h191.62v41.47H1832.2V610h-50.89Z"/><path class="cls-1" d="M2063.73,562.83h-102.1L1942.15,610H1890l98-219.9h50.26L2136.61,610H2083.2Zm-16-38.64L2012.84,440,1978,524.19Z"/><path class="cls-1" d="M2181.37,606.65q-24.35-7.06-39.11-18.38L2159.54,550a117.17,117.17,0,0,0,33.61,16.65,126.14,126.14,0,0,0,38.95,6.28q21.68,0,32-6.44t10.37-17.12a16.37,16.37,0,0,0-6.13-13,46.45,46.45,0,0,0-15.7-8.32q-9.58-3.13-25.92-6.91-25.14-6-41.15-11.94A66.91,66.91,0,0,1,2158.12,490q-11.48-13.2-11.46-35.19A61.22,61.22,0,0,1,2157,420.05q10.36-15.54,31.26-24.66t51-9.11a169.16,169.16,0,0,1,41.15,5,121.61,121.61,0,0,1,35.18,14.45L2300,444.4q-30.48-17.28-60.95-17.28-21.36,0-31.57,6.91t-10.21,18.22q0,11.31,11.78,16.81t36,10.84q25.13,6,41.15,11.93a68.28,68.28,0,0,1,27.49,18.85q11.46,12.88,11.47,34.87a60,60,0,0,1-10.53,34.4Q2304,595.49,2283,604.61t-51.2,9.11A180,180,0,0,1,2181.37,606.65Z"/><path class="cls-1" d="M2402.36,431.52H2332V390.05h191.63v41.47h-70.37V610h-50.89Z"/><path class="cls-1" d="M2551,390.05h50.89V610H2551Z"/><path class="cls-1" d="M2698.43,599.11a109,109,0,0,1-42.72-40.52q-15.55-25.92-15.55-58.59t15.55-58.59a109,109,0,0,1,42.72-40.52q27.17-14.61,61.1-14.61,28.57,0,51.67,10.05a103.51,103.51,0,0,1,38.8,28.91l-32.67,30.15Q2795,429.64,2762,429.63q-20.41,0-36.44,9a63.65,63.65,0,0,0-25,25q-9,16-9,36.44t9,36.44a63.59,63.59,0,0,0,25,25q16,9,36.44,9,33,0,55.29-26.08L2850,574.45a101.82,101.82,0,0,1-38.95,29.22q-23.25,10.05-51.84,10.05Q2725.6,613.72,2698.43,599.11Z"/></svg>