<?xml version="1.0" encoding="UTF-8"?><svg id="Layer_1" xmlns="http://www.w3.org/2000/svg" viewBox="0 0 3000 1000"><defs><style>.cls-1{fill:#fff;}.cls-2{fill:#e5e5e5;}.cls-3{fill:#40c0fa;}</style></defs><g><g><path class="cls-3" d="M550,910c-55.35,0-109.04-10.84-159.59-32.22-48.82-20.65-92.67-50.21-130.32-87.86s-67.21-81.5-87.86-130.32c-21.38-50.55-32.22-104.25-32.22-159.59s10.84-109.04,32.22-159.59c20.65-48.82,50.21-92.67,87.86-130.32,37.65-37.65,81.5-67.21,130.32-87.86,50.55-21.38,104.25-32.22,159.59-32.22s109.04,10.84,159.59,32.22c48.82,20.65,92.67,50.21,130.32,87.86,37.65,37.65,67.21,81.5,87.86,130.32,21.38,50.55,32.22,104.25,32.22,159.59s-10.84,109.04-32.22,159.59c-20.65,48.82-50.21,92.67-87.86,130.32s-81.5,67.21-130.32,87.86c-50.55,21.38-104.25,32.22-159.59,32.22Z"/><path class="cls-1" d="M550,100c220.91,0,400,179.09,400,400s-179.09,400-400,400S150,720.91,150,500,329.09,100,550,100m0-20c-56.69,0-111.7,11.11-163.49,33.01-50.02,21.15-94.93,51.44-133.5,90-38.57,38.57-68.85,83.48-90,133.5-21.91,51.79-33.01,106.8-33.01,163.49s11.11,111.7,33.01,163.49c21.16,50.02,51.44,94.93,90,133.5,38.57,38.57,83.48,68.85,133.5,90,51.79,21.91,106.8,33.01,163.49,33.01s111.7-11.11,163.49-33.01c50.02-21.15,94.93-51.44,133.5-90,38.57-38.57,68.85-83.48,90-133.5,21.91-51.79,33.01-106.8,33.01-163.49s-11.11-111.7-33.01-163.49c-21.16-50.02-51.44-94.93-90-133.5-38.57-38.57-83.48-68.85-133.5-90-51.79-21.91-106.8-33.01-163.49-33.01h0Z"/></g><rect class="cls-2" x="326" y="245.6" width="448" height="320"/><path class="cls-1" d="M693.2,324H405.2V872.98c44.9,17.44,93.73,27.02,144.8,27.02s98.74-9.35,143.2-26.4V324Z"/><polygon class="cls-3" points="505.2 359.2 524.98 399.23 569.2 405.65 537.2 436.8 544.75 480.8 505.2 460.03 465.65 480.8 473.2 436.8 441.2 405.65 485.42 399.23 505.2 359.2"/><polygon class="cls-3" points="617.2 453.6 629.56 478.62 657.2 482.63 637.2 502.1 641.92 529.6 617.2 516.62 592.48 529.6 597.2 502.1 577.2 482.63 604.84 478.62 617.2 453.6"/><polygon class="cls-3" points="516.4 517.6 526.29 537.61 548.4 540.82 532.4 556.4 536.18 578.4 516.4 568.01 496.62 578.4 500.4 556.4 484.4 540.82 506.51 537.61 516.4 517.6"/></g><g><path class="cls-1" d="M1120.37,431.52h-70.37v-41.47h191.62v41.47h-70.37v178.43h-50.89v-178.43Z"/><path class="cls-1" d="M1402.78,562.83h-102.1l-19.48,47.12h-52.15l98.01-219.9h50.26l98.33,219.9h-53.4l-19.48-47.12Zm-16.02-38.64l-34.87-84.19-34.87,84.19h69.74Z"/><path class="cls-1" d="M1689.58,515.55c7.12,9.32,10.68,20.79,10.68,34.4,0,19.27-7.49,34.08-22.46,44.45-14.98,10.37-36.81,15.55-65.5,15.55h-113.72v-219.9h107.44c26.81,0,47.38,5.13,61.73,15.39,14.34,10.26,21.52,24.19,21.52,41.78,0,10.68-2.57,20.21-7.7,28.59-5.13,8.38-12.3,14.98-21.52,19.79,12.57,3.98,22.41,10.63,29.53,19.95Zm-140.42-87.17v51.83h50.58c12.57,0,22.09-2.2,28.59-6.6,6.49-4.4,9.74-10.89,9.74-19.48s-3.25-15.02-9.74-19.32c-6.49-4.29-16.02-6.44-28.59-6.44h-50.58Zm89.69,136.65c6.8-4.4,10.21-11.2,10.21-20.42,0-18.22-13.51-27.33-40.52-27.33h-59.37v54.35h59.37c13.4,0,23.51-2.2,30.31-6.6Z"/><path class="cls-1" d="M1781.31,431.52h-70.37v-41.47h191.62v41.47h-70.37v178.43h-50.89v-178.43Z"/><path class="cls-1" d="M2063.73,562.83h-102.1l-19.48,47.12h-52.15l98.01-219.9h50.26l98.33,219.9h-53.4l-19.48-47.12Zm-16.02-38.64l-34.87-84.19-34.87,84.19h69.74Z"/><path class="cls-1" d="M2181.37,606.65c-16.23-4.71-29.27-10.84-39.11-18.38l17.28-38.32c9.42,6.91,20.63,12.46,33.61,16.65,12.98,4.19,25.97,6.28,38.95,6.28,14.45,0,25.13-2.14,32.04-6.44,6.91-4.29,10.37-10,10.37-17.12,0-5.23-2.04-9.58-6.13-13.04-4.08-3.46-9.32-6.23-15.71-8.33-6.39-2.09-15.03-4.4-25.92-6.91-16.76-3.98-30.47-7.96-41.15-11.94-10.68-3.98-19.84-10.37-27.49-19.16-7.65-8.8-11.47-20.52-11.47-35.18,0-12.77,3.45-24.35,10.37-34.71,6.91-10.37,17.33-18.58,31.26-24.66,13.93-6.07,30.94-9.11,51.05-9.11,14.03,0,27.75,1.68,41.15,5.03,13.4,3.35,25.13,8.17,35.18,14.45l-15.71,38.64c-20.32-11.52-40.63-17.28-60.94-17.28-14.24,0-24.77,2.31-31.57,6.91-6.81,4.61-10.21,10.68-10.21,18.22s3.93,13.14,11.78,16.81c7.85,3.67,19.84,7.28,35.97,10.84,16.75,3.98,30.47,7.96,41.15,11.94,10.68,3.98,19.84,10.26,27.49,18.85,7.64,8.59,11.47,20.21,11.47,34.87,0,12.57-3.51,24.03-10.52,34.4-7.02,10.37-17.54,18.59-31.57,24.66-14.03,6.07-31.1,9.11-51.2,9.11-17.39,0-34.19-2.36-50.42-7.07Z"/><path class="cls-1" d="M2402.36,431.52h-70.37v-41.47h191.62v41.47h-70.37v178.43h-50.89v-178.43Z"/><path class="cls-1" d="M2550.95,390.05h50.89v219.9h-50.89v-219.9Z"/><path class="cls-1" d="M2698.43,599.11c-18.12-9.74-32.36-23.25-42.72-40.52-10.37-17.28-15.55-36.8-15.55-58.59s5.18-41.31,15.55-58.59c10.37-17.28,24.61-30.78,42.72-40.52,18.11-9.74,38.48-14.61,61.1-14.61,19.05,0,36.28,3.35,51.68,10.05,15.39,6.71,28.32,16.34,38.8,28.9l-32.67,30.16c-14.87-17.17-33.3-25.76-55.29-25.76-13.62,0-25.76,2.98-36.44,8.95-10.68,5.97-19,14.29-24.97,24.97-5.97,10.68-8.95,22.83-8.95,36.44s2.98,25.76,8.95,36.44c5.97,10.68,14.29,19.01,24.97,24.97,10.68,5.97,22.82,8.95,36.44,8.95,21.99,0,40.42-8.69,55.29-26.07l32.67,30.16c-10.47,12.78-23.46,22.51-38.95,29.21-15.5,6.7-32.78,10.05-51.83,10.05-22.41,0-42.67-4.87-60.79-14.61Z"/></g></svg>